<?xml version="1.0"?>
<svg xmlns="http://www.w3.org/2000/svg" height="512px" viewBox="-141 0 512 512" width="512px" class=""><g><path d="m115.101562 512c-63.464843 0-115.101562-51.636719-115.101562-115.101562 0-34.386719 15.507812-67.011719 41.855469-88.785157v-234.867187c0-40.386719 32.859375-73.246094 73.246093-73.246094 40.390626 0 73.25 32.859375 73.25 73.246094v234.867187c26.34375 21.773438 41.855469 54.398438 41.855469 88.785157 0 63.464843-51.636719 115.101562-115.105469 115.101562zm0 0" fill="#f5f5fc" data-original="#F5F5FC" class=""/><path d="m188.351562 308.113281v-234.867187c0-40.355469-32.808593-73.1953128-73.15625-73.24218775v511.99609375c63.425782-.050781 115.011719-51.664062 115.011719-115.101562 0-34.386719-15.511719-67.011719-41.855469-88.785157zm0 0" fill="#ebebf5" data-original="#EBEBF5" class=""/><path d="m130.28125 344.214844v-139.960938c0-8.382812-6.796875-15.179687-15.179688-15.179687-8.382812 0-15.175781 6.796875-15.175781 15.179687v139.960938c-22.875 6.601562-39.65625 27.710937-39.65625 52.683594 0 30.234374 24.597657 54.832031 54.832031 54.832031 30.234376 0 54.835938-24.597657 54.835938-54.832031 0-24.972657-16.785156-46.082032-39.65625-52.683594zm0 0" fill="#ff683b" data-original="#FF683B" class=""/><path d="m130.28125 344.214844v-139.960938c0-8.351562-6.746094-15.125-15.085938-15.171875v262.648438c30.191407-.050781 54.742188-24.628907 54.742188-54.832031 0-24.972657-16.785156-46.082032-39.65625-52.683594zm0 0" fill="#f92814" data-original="#F92814" class="active-path" style="fill:#F92814"/></g> </svg>
